HIERARCHY
    ROOT Hips
    {
        OFFSET -42.200000 91.615000 -40.070000
        CHANNELS 6 Xposition Yposition Zposition Zrotation Yrotation Xrotation 
        JOINT Thigh_L
        {
            OFFSET 0.103500 1.857800 10.548500
            CHANNELS 3 Zrotation Yrotation Xrotation
            JOINT Shin_L
            {
                OFFSET 43.500000 0.000000 0.000000
                CHANNELS 3 Zrotation Yrotation Xrotation
                JOINT Foot_L
                {
                    OFFSET 42.372000 0.000000 0.000000
                    CHANNELS 3 Zrotation Yrotation Xrotation
                    JOINT Toe_L
                    {
                        OFFSET 17.300000 0.000000 0.000000
                        CHANNELS 3 Zrotation Yrotation Xrotation
                        End Site
                        {
                            OFFSET 10.000000 0.000000 0.000000
                        }
                    }
                }
            }
        }
        JOINT Thigh_R
        {
            OFFSET 0.103500 1.857800 -10.548500
            CHANNELS 3 Zrotation Yrotation Xrotation
            JOINT Shin_R
            {
                OFFSET 43.500000 0.000000 0.000000
                CHANNELS 3 Zrotation Yrotation Xrotation
                JOINT Foot_R
                {
                    OFFSET 42.372000 0.000000 0.000000
                    CHANNELS 3 Zrotation Yrotation Xrotation
                    JOINT Toe_R
                    {
                        OFFSET 17.300000 0.000000 0.000000
                        CHANNELS 3 Zrotation Yrotation Xrotation
                        End Site 
                        {
                            OFFSET 10.000000 0.000000 0.000000
                        }
                    }
                }
            }
        }
        JOINT Spine
        {
            OFFSET 6.900000 -2.600000 0.000000
            CHANNELS 3 Zrotation Yrotation Xrotation
            JOINT Spine1
            {
                OFFSET 12.588000 0.000000 0.000000
                CHANNELS 3 Zrotation Yrotation Xrotation
                JOINT Spine2
                {
                    OFFSET 12.343000 0.000000 0.000000
                    CHANNELS 3 Zrotation Yrotation Xrotation
                    JOINT Neck
                    {
                        OFFSET 25.833000 0.000000 0.000000
                        CHANNELS 3 Zrotation Yrotation Xrotation
                        JOINT Head
                        {
                            OFFSET 11.766600 0.000000 0.000000
                            CHANNELS 3 Zrotation Yrotation Xrotation
                            End Site
                            {
                                OFFSET 10.000000 0.000000 0.000000
                            }
                        }
                    }
                    JOINT Shoulder_L
                    {
                        OFFSET 19.746000 -1.480000 6.000000
                        CHANNELS 3 Zrotation Yrotation Xrotation
                        JOINT UpperArm_L
                        {
                            OFFSET 11.284000 0.000000 0.000000
                            CHANNELS 3 Zrotation Yrotation Xrotation
                            JOINT Forearm_L
                            {
                                OFFSET 33.000000 0.000000 0.000000
                                CHANNELS 3 Zrotation Yrotation Xrotation
                                JOINT Hand_L
                                {
                                    OFFSET 25.200000 0.000000 0.000000
                                    CHANNELS 3 Zrotation Yrotation Xrotation
                                    End Site
                                    {
                                        OFFSET 10.000000 0.000000 0.000000
                                    }
                                }
                            }
                        }
                    }
                    JOINT Shoulder_R
                    {
                        OFFSET 19.745000 -1.480000 -6.000000
                        CHANNELS 3 Zrotation Yrotation Xrotation
                        JOINT UpperArm_R
                        {
                            OFFSET 11.284000 0.000000 0.000000
                            CHANNELS 3 Zrotation Yrotation Xrotation
                            JOINT Forearm_R
                            {
                                OFFSET 33.000000 0.000000 0.000000
                                CHANNELS 3 Zrotation Yrotation Xrotation
                                JOINT Hand_R
                                {
                                    OFFSET 25.200000 0.000000 0.000000
                                    CHANNELS 3 Zrotation Yrotation Xrotation
                                    End Site
                                    {
                                        OFFSET 10.000000 0.000000 0.000000
                                    }
                                }
                            }
                        }
                    }
                }
            }
        }
    }
    MOTION 
Frames: 4 
Frame Time: 0.033333 
-37.9 79.1 -15.0 92.07351684570312 5.257656574249268 179.27105712890625 156.7742462158203 -4.418392658233643 -179.2968292236328 -130.2046356201172 4.825379848480225 -14.3473539352417 72.20722198486328 11.64083194732666 -10.34886360168457 20.887149810791016 -0.5603758692741394 -0.14548684656620026 144.996826171875 2.4791529178619385 -169.462890625 -67.99427795410156 -1.8493103981018066 -4.220014572143555 99.91516876220703 8.475431442260742 5.043044090270996 21.38343620300293 0.07946924865245819 0.5606452226638794 4.8250017166137695 4.57084321975708 -0.5705439448356628 7.302639484405518 2.1671712398529053 -1.731863260269165 6.476147651672363 2.0532453060150146 -2.7059390544891357 -6.84846830368042 4.764066696166992 -6.689745903015137 -19.926647186279297 -3.7095465660095215 -3.6166718006134033 -168.8647918701172 -84.21324157714844 -10.122354507446289 4.195895195007324 60.59000015258789 54.594390869140625 -27.558456420898438 -12.795334815979004 2.952172040939331 13.308280944824219 -6.30763578414917 -6.339460849761963 179.03549194335938 74.18183898925781 1.285069227218628 7.394825458526611 -51.964752197265625 -29.486486434936523 -18.7873592376709 7.779008388519287 -0.16325436532497406 7.3560967445373535 5.362180233001709 -4.599165439605713
-30.4 80.7 -15.4 92.62488555908203 5.5652594566345215 176.48446655273438 136.6610565185547 -1.2478725910186768 -177.98373413085938 -143.33749389648438 3.109654664993286 -14.871034622192383 74.35328674316406 15.349641799926758 -8.772205352783203 20.834653854370117 -0.6167576313018799 -0.13263224065303802 152.0164031982422 2.518430471420288 -170.7062225341797 -66.24455261230469 -0.9889005422592163 -5.306137561798096 103.26304626464844 9.89104175567627 6.230340480804443 21.349397659301758 0.09426894783973694 0.6269204020500183 3.772653341293335 4.62033748626709 0.5480612516403198 8.13989543914795 2.2868967056274414 0.33505287766456604 7.051417827606201 2.019745349884033 -0.6127578616142273 -6.248203754425049 4.294156074523926 -7.14786434173584 -19.820205688476562 -2.9332871437072754 -4.721543312072754 -156.8101348876953 -84.14690399169922 -21.308353424072266 16.89004898071289 55.743473052978516 65.059814453125 -33.921607971191406 -12.566750526428223 4.235462665557861 13.654580116271973 -5.874089241027832 -6.45715856552124 172.7683563232422 76.09149932861328 -4.291908264160156 -6.160374164581299 -50.014041900634766 -16.153005599975586 -31.57819175720215 8.044424057006836 -0.7941724061965942 6.178633689880371 6.265276908874512 -5.718240261077881
-23.1 83.7 -16.3 92.87920379638672 5.15737771987915 174.21875 118.3974380493164 1.5195338726043701 -179.2057342529297 -147.17039489746094 2.501446485519409 -14.710634231567383 74.28976440429688 18.170448303222656 -7.348780632019043 20.776092529296875 -0.678357720375061 -0.11477585881948471 159.75433349609375 3.6332333087921143 -172.440673828125 -60.788047790527344 0.1204632893204689 -6.091657638549805 101.0887222290039 10.837814331054688 7.680826187133789 21.306970596313477 0.1076759472489357 0.6930270791053772 2.950917959213257 4.686777114868164 1.5898916721343994 8.566271781921387 1.8764228820800781 2.3306753635406494 7.38022518157959 1.2401527166366577 1.2891860008239746 -5.090184211730957 3.526829242706299 -7.70119047164917 -19.595714569091797 -1.7634682655334473 -6.150434494018555 -137.76080322265625 -84.63585662841797 -39.29908752441406 27.26578140258789 47.2548942565918 72.54864501953125 -45.44335174560547 -12.114201545715332 6.055736064910889 13.695196151733398 -5.3938775062561035 -6.249122142791748 163.55514526367188 79.90444946289062 -13.014698028564453 -14.103005409240723 -46.44161605834961 -7.0990705490112305 -52.691402435302734 8.307263374328613 -2.0931880474090576 4.599806785583496 7.103968620300293 -7.18422269821167
-15.8 88.3 -17.3 92.99693298339844 3.9540255069732666 172.59852600097656 105.9516830444336 3.126877546310425 178.06295776367188 -143.5954132080078 2.5957541465759277 -14.404828071594238 74.52827453613281 20.09524917602539 -5.613988399505615 20.70958137512207 -0.7478942275047302 -0.0926758274435997 167.49423217773438 5.795495510101318 -174.126953125 -52.28489685058594 1.3223400115966797 -6.488372325897217 89.7977523803711 11.97069263458252 8.89993953704834 21.254743576049805 0.12123353779315948 0.7583749890327454 2.3848154544830322 4.466848373413086 2.5196642875671387 8.457449913024902 1.1034321784973145 4.175151824951172 7.194279193878174 -0.041224878281354904 2.9599056243896484 -3.576791763305664 2.602731227874756 -8.478696823120117 -19.13056182861328 -0.22673608362674713 -7.875991344451904 -115.57927703857422 -84.68403625488281 -60.4719352722168 34.97145080566406 37.415000915527344 76.84944915771484 -58.06389617919922 -11.313996315002441 7.767551422119141 13.570173263549805 -4.809176921844482 -6.0663371086120605 143.1546630859375 84.1930923461914 -33.06527328491211 -16.749780654907227 -42.80912780761719 -1.8791054487228394 -76.78482818603516 8.196565628051758 -3.7162129878997803 2.9833171367645264 7.745423316955566 -8.518796920776367
